<?xml version="1.0" encoding="utf-8"?>
<!-- Uploaded to: SVG Repo, www.svgrepo.com, Generator: SVG Repo Mixer Tools -->
<svg width="800px" height="800px" viewBox="0 0 1024 1024" fill="#0d017c" class="icon"  version="1.1" xmlns="http://www.w3.org/2000/svg"><path d="M406.055 511.941c0 0.004 0 0.007 0 0.008 0 58.479 47.407 105.886 105.886 105.886 58.478 0 105.886-47.407 105.886-105.886 0-0.004 0-0.008 0-0.008 0-0.003 0-0.007 0-0.007 0-58.478-47.407-105.886-105.886-105.886-58.478 0-105.886 47.407-105.886 105.886 0 0.004 0 0.007 0 0.007zM511.941 859.615c-191.564 0-347.555-155.992-347.555-347.674s155.992-347.555 347.555-347.555 347.555 155.992 347.555 347.555-155.874 347.674-347.555 347.674zM511.941 235.292c-152.565 0-276.65 124.085-276.65 276.65s124.085 276.65 276.65 276.65 276.65-124.085 276.65-276.65-124.085-276.65-276.65-276.65z" /></svg>